<mxfile host="app.diagrams.net" agent="Mozilla/5.0 (Windows NT 10.0; Win64; x64) AppleWebKit/537.36 (KHTML, like Gecko) Chrome/141.0.0.0 Safari/537.36 Edg/141.0.0.0" version="28.2.8">
  <diagram name="Page-1" id="0783ab3e-0a74-02c8-0abd-f7b4e66b4bec">
    <mxGraphModel dx="2421" dy="1313" grid="1" gridSize="10" guides="1" tooltips="1" connect="1" arrows="1" fold="1" page="1" pageScale="1" pageWidth="850" pageHeight="1100" background="none" math="0" shadow="0">
      <root>
        <mxCell id="0" />
        <mxCell id="1" parent="0" />
        <mxCell id="1c1d494c118603dd-1" value="Manage Room Change Request Flow" style="swimlane;html=1;childLayout=stackLayout;startSize=20;rounded=0;shadow=0;comic=0;labelBackgroundColor=none;strokeWidth=1;fontFamily=Verdana;fontSize=12;align=center;" parent="1" vertex="1">
          <mxGeometry x="40" y="20" width="750" height="990" as="geometry" />
        </mxCell>
        <mxCell id="1c1d494c118603dd-2" value="Student" style="swimlane;html=1;startSize=20;" parent="1c1d494c118603dd-1" vertex="1">
          <mxGeometry y="20" width="250" height="970" as="geometry" />
        </mxCell>
        <mxCell id="SpmuYnoIAbciVNa0p7kb-2" style="edgeStyle=orthogonalEdgeStyle;rounded=0;orthogonalLoop=1;jettySize=auto;html=1;" edge="1" parent="1c1d494c118603dd-2" source="SpmuYnoIAbciVNa0p7kb-1">
          <mxGeometry relative="1" as="geometry">
            <mxPoint x="125" y="150" as="targetPoint" />
          </mxGeometry>
        </mxCell>
        <mxCell id="SpmuYnoIAbciVNa0p7kb-1" value="" style="ellipse;whiteSpace=wrap;html=1;rounded=0;shadow=0;comic=0;labelBackgroundColor=none;strokeWidth=1;fillColor=#000000;fontFamily=Verdana;fontSize=12;align=center;" vertex="1" parent="1c1d494c118603dd-2">
          <mxGeometry x="105" y="50" width="40" height="40" as="geometry" />
        </mxCell>
        <mxCell id="SpmuYnoIAbciVNa0p7kb-3" value="Fill and submit room change request" style="rounded=1;whiteSpace=wrap;html=1;shadow=0;comic=0;labelBackgroundColor=none;strokeWidth=1;fontFamily=Verdana;fontSize=12;align=center;arcSize=50;" vertex="1" parent="1c1d494c118603dd-2">
          <mxGeometry x="62.5" y="150" width="125" height="50" as="geometry" />
        </mxCell>
        <mxCell id="SpmuYnoIAbciVNa0p7kb-46" style="edgeStyle=orthogonalEdgeStyle;rounded=0;orthogonalLoop=1;jettySize=auto;html=1;entryX=0.5;entryY=0;entryDx=0;entryDy=0;" edge="1" parent="1c1d494c118603dd-2" source="SpmuYnoIAbciVNa0p7kb-43" target="SpmuYnoIAbciVNa0p7kb-45">
          <mxGeometry relative="1" as="geometry" />
        </mxCell>
        <mxCell id="SpmuYnoIAbciVNa0p7kb-43" value="View request result" style="rounded=1;whiteSpace=wrap;html=1;shadow=0;comic=0;labelBackgroundColor=none;strokeWidth=1;fontFamily=Verdana;fontSize=12;align=center;arcSize=50;" vertex="1" parent="1c1d494c118603dd-2">
          <mxGeometry x="75" y="750" width="105" height="30" as="geometry" />
        </mxCell>
        <mxCell id="SpmuYnoIAbciVNa0p7kb-45" value="" style="shape=mxgraph.bpmn.shape;html=1;verticalLabelPosition=bottom;labelBackgroundColor=#ffffff;verticalAlign=top;perimeter=ellipsePerimeter;outline=end;symbol=terminate;rounded=0;shadow=0;comic=0;strokeWidth=1;fontFamily=Verdana;fontSize=12;align=center;" vertex="1" parent="1c1d494c118603dd-2">
          <mxGeometry x="107.5" y="850" width="40" height="40" as="geometry" />
        </mxCell>
        <mxCell id="1c1d494c118603dd-3" value="System" style="swimlane;html=1;startSize=20;" parent="1c1d494c118603dd-1" vertex="1">
          <mxGeometry x="250" y="20" width="250" height="970" as="geometry" />
        </mxCell>
        <mxCell id="SpmuYnoIAbciVNa0p7kb-12" value="" style="edgeStyle=orthogonalEdgeStyle;rounded=0;orthogonalLoop=1;jettySize=auto;html=1;" edge="1" parent="1c1d494c118603dd-3" source="SpmuYnoIAbciVNa0p7kb-10" target="SpmuYnoIAbciVNa0p7kb-11">
          <mxGeometry relative="1" as="geometry" />
        </mxCell>
        <mxCell id="SpmuYnoIAbciVNa0p7kb-10" value="Receive request and add to &quot;Pending Approval&quot; list" style="rounded=1;whiteSpace=wrap;html=1;shadow=0;comic=0;labelBackgroundColor=none;strokeWidth=1;fontFamily=Verdana;fontSize=12;align=center;arcSize=50;" vertex="1" parent="1c1d494c118603dd-3">
          <mxGeometry x="55" y="145" width="140" height="60" as="geometry" />
        </mxCell>
        <mxCell id="SpmuYnoIAbciVNa0p7kb-11" value="Notify Dorm Administrator of new request" style="whiteSpace=wrap;html=1;fontFamily=Verdana;rounded=1;shadow=0;comic=0;labelBackgroundColor=none;strokeWidth=1;arcSize=50;" vertex="1" parent="1c1d494c118603dd-3">
          <mxGeometry x="65" y="285" width="120" height="60" as="geometry" />
        </mxCell>
        <mxCell id="SpmuYnoIAbciVNa0p7kb-27" value="Send &quot;Request Approved&quot; notification to Student" style="rounded=1;whiteSpace=wrap;html=1;shadow=0;comic=0;labelBackgroundColor=none;strokeWidth=1;fontFamily=Verdana;fontSize=12;align=center;arcSize=50;" vertex="1" parent="1c1d494c118603dd-3">
          <mxGeometry x="5" y="550" width="120" height="60" as="geometry" />
        </mxCell>
        <mxCell id="SpmuYnoIAbciVNa0p7kb-38" value="Send &quot;Request Rejected&quot; notification to Student" style="rounded=1;whiteSpace=wrap;html=1;shadow=0;comic=0;labelBackgroundColor=none;strokeWidth=1;fontFamily=Verdana;fontSize=12;align=center;arcSize=50;" vertex="1" parent="1c1d494c118603dd-3">
          <mxGeometry x="125" y="550" width="115" height="60" as="geometry" />
        </mxCell>
        <mxCell id="SpmuYnoIAbciVNa0p7kb-40" value="" style="whiteSpace=wrap;html=1;rounded=0;shadow=0;comic=0;labelBackgroundColor=none;strokeWidth=1;fillColor=#000000;fontFamily=Verdana;fontSize=12;align=center;rotation=0;" vertex="1" parent="1c1d494c118603dd-3">
          <mxGeometry x="51.5" y="700" width="147" height="10" as="geometry" />
        </mxCell>
        <mxCell id="SpmuYnoIAbciVNa0p7kb-41" style="edgeStyle=orthogonalEdgeStyle;rounded=0;orthogonalLoop=1;jettySize=auto;html=1;entryX=0.347;entryY=0.417;entryDx=0;entryDy=0;entryPerimeter=0;" edge="1" parent="1c1d494c118603dd-3" source="SpmuYnoIAbciVNa0p7kb-27" target="SpmuYnoIAbciVNa0p7kb-40">
          <mxGeometry relative="1" as="geometry" />
        </mxCell>
        <mxCell id="SpmuYnoIAbciVNa0p7kb-42" style="edgeStyle=orthogonalEdgeStyle;rounded=0;orthogonalLoop=1;jettySize=auto;html=1;entryX=0.704;entryY=-0.167;entryDx=0;entryDy=0;entryPerimeter=0;" edge="1" parent="1c1d494c118603dd-3" source="SpmuYnoIAbciVNa0p7kb-38" target="SpmuYnoIAbciVNa0p7kb-40">
          <mxGeometry relative="1" as="geometry" />
        </mxCell>
        <mxCell id="1c1d494c118603dd-4" value="Dorm Administrator" style="swimlane;html=1;startSize=20;" parent="1c1d494c118603dd-1" vertex="1">
          <mxGeometry x="500" y="20" width="250" height="970" as="geometry" />
        </mxCell>
        <mxCell id="SpmuYnoIAbciVNa0p7kb-18" style="edgeStyle=orthogonalEdgeStyle;rounded=0;orthogonalLoop=1;jettySize=auto;html=1;entryX=0.5;entryY=0;entryDx=0;entryDy=0;" edge="1" parent="1c1d494c118603dd-4" source="SpmuYnoIAbciVNa0p7kb-15" target="SpmuYnoIAbciVNa0p7kb-17">
          <mxGeometry relative="1" as="geometry" />
        </mxCell>
        <mxCell id="SpmuYnoIAbciVNa0p7kb-15" value="Review room change request" style="rounded=1;whiteSpace=wrap;html=1;shadow=0;comic=0;labelBackgroundColor=none;strokeWidth=1;fontFamily=Verdana;fontSize=12;align=center;arcSize=50;" vertex="1" parent="1c1d494c118603dd-4">
          <mxGeometry x="65" y="295" width="120" height="40" as="geometry" />
        </mxCell>
        <mxCell id="SpmuYnoIAbciVNa0p7kb-20" style="edgeStyle=orthogonalEdgeStyle;rounded=0;orthogonalLoop=1;jettySize=auto;html=1;exitX=0.5;exitY=1;exitDx=0;exitDy=0;entryX=0.5;entryY=0;entryDx=0;entryDy=0;" edge="1" parent="1c1d494c118603dd-4" source="SpmuYnoIAbciVNa0p7kb-17" target="SpmuYnoIAbciVNa0p7kb-19">
          <mxGeometry relative="1" as="geometry" />
        </mxCell>
        <mxCell id="SpmuYnoIAbciVNa0p7kb-23" value="Yes" style="edgeLabel;html=1;align=center;verticalAlign=middle;resizable=0;points=[];" vertex="1" connectable="0" parent="SpmuYnoIAbciVNa0p7kb-20">
          <mxGeometry x="-0.0667" y="-2" relative="1" as="geometry">
            <mxPoint as="offset" />
          </mxGeometry>
        </mxCell>
        <mxCell id="SpmuYnoIAbciVNa0p7kb-22" style="edgeStyle=orthogonalEdgeStyle;rounded=0;orthogonalLoop=1;jettySize=auto;html=1;exitX=1;exitY=0.5;exitDx=0;exitDy=0;" edge="1" parent="1c1d494c118603dd-4" source="SpmuYnoIAbciVNa0p7kb-17" target="SpmuYnoIAbciVNa0p7kb-21">
          <mxGeometry relative="1" as="geometry">
            <Array as="points">
              <mxPoint x="190" y="403" />
            </Array>
          </mxGeometry>
        </mxCell>
        <mxCell id="SpmuYnoIAbciVNa0p7kb-25" value="No" style="edgeLabel;html=1;align=center;verticalAlign=middle;resizable=0;points=[];" vertex="1" connectable="0" parent="SpmuYnoIAbciVNa0p7kb-22">
          <mxGeometry x="-0.0303" y="-1" relative="1" as="geometry">
            <mxPoint as="offset" />
          </mxGeometry>
        </mxCell>
        <mxCell id="SpmuYnoIAbciVNa0p7kb-17" value="Approve?" style="rhombus;whiteSpace=wrap;html=1;" vertex="1" parent="1c1d494c118603dd-4">
          <mxGeometry x="75" y="380" width="100" height="45" as="geometry" />
        </mxCell>
        <mxCell id="SpmuYnoIAbciVNa0p7kb-19" value="Execute room change in system" style="rounded=1;whiteSpace=wrap;html=1;shadow=0;comic=0;labelBackgroundColor=none;strokeWidth=1;fontFamily=Verdana;fontSize=12;align=center;arcSize=50;" vertex="1" parent="1c1d494c118603dd-4">
          <mxGeometry x="10" y="470" width="120" height="40" as="geometry" />
        </mxCell>
        <mxCell id="SpmuYnoIAbciVNa0p7kb-21" value="Enter rejection reason" style="rounded=1;whiteSpace=wrap;html=1;shadow=0;comic=0;labelBackgroundColor=none;strokeWidth=1;fontFamily=Verdana;fontSize=12;align=center;arcSize=50;" vertex="1" parent="1c1d494c118603dd-4">
          <mxGeometry x="140" y="470" width="100" height="40" as="geometry" />
        </mxCell>
        <mxCell id="SpmuYnoIAbciVNa0p7kb-9" style="edgeStyle=orthogonalEdgeStyle;rounded=0;orthogonalLoop=1;jettySize=auto;html=1;entryX=0;entryY=0.5;entryDx=0;entryDy=0;" edge="1" parent="1c1d494c118603dd-1" source="SpmuYnoIAbciVNa0p7kb-3" target="SpmuYnoIAbciVNa0p7kb-10">
          <mxGeometry relative="1" as="geometry">
            <mxPoint x="310" y="195" as="targetPoint" />
          </mxGeometry>
        </mxCell>
        <mxCell id="SpmuYnoIAbciVNa0p7kb-16" style="edgeStyle=orthogonalEdgeStyle;rounded=0;orthogonalLoop=1;jettySize=auto;html=1;entryX=0;entryY=0.5;entryDx=0;entryDy=0;" edge="1" parent="1c1d494c118603dd-1" source="SpmuYnoIAbciVNa0p7kb-11" target="SpmuYnoIAbciVNa0p7kb-15">
          <mxGeometry relative="1" as="geometry" />
        </mxCell>
        <mxCell id="SpmuYnoIAbciVNa0p7kb-26" style="edgeStyle=orthogonalEdgeStyle;rounded=0;orthogonalLoop=1;jettySize=auto;html=1;entryX=0.5;entryY=0;entryDx=0;entryDy=0;" edge="1" parent="1c1d494c118603dd-1" source="SpmuYnoIAbciVNa0p7kb-19" target="SpmuYnoIAbciVNa0p7kb-27">
          <mxGeometry relative="1" as="geometry">
            <mxPoint x="360" y="570" as="targetPoint" />
          </mxGeometry>
        </mxCell>
        <mxCell id="SpmuYnoIAbciVNa0p7kb-39" style="edgeStyle=orthogonalEdgeStyle;rounded=0;orthogonalLoop=1;jettySize=auto;html=1;exitX=0.5;exitY=1;exitDx=0;exitDy=0;entryX=0.5;entryY=0;entryDx=0;entryDy=0;" edge="1" parent="1c1d494c118603dd-1" source="SpmuYnoIAbciVNa0p7kb-21" target="SpmuYnoIAbciVNa0p7kb-38">
          <mxGeometry relative="1" as="geometry" />
        </mxCell>
        <mxCell id="SpmuYnoIAbciVNa0p7kb-44" style="edgeStyle=orthogonalEdgeStyle;rounded=0;orthogonalLoop=1;jettySize=auto;html=1;" edge="1" parent="1c1d494c118603dd-1" source="SpmuYnoIAbciVNa0p7kb-40" target="SpmuYnoIAbciVNa0p7kb-43">
          <mxGeometry relative="1" as="geometry" />
        </mxCell>
      </root>
    </mxGraphModel>
  </diagram>
</mxfile>
